#Comment line ignore any data following # character 
#Hierarchical Translation and Rotation (.htr) file 
[Header]	
#Header keywords are followed by a single value 
FileType HTR		#Single word string
DataType HTRS		#Translation followed by rotation and scale data
FileVersion 1		#integer
NumSegments 25		#integer
NumFrames 4		#integer
DataFrameRate 30		#integer, data frame rate in this file
EulerRotationOrder ZYX
CalibrationUnits mm
RotationUnits Degrees
GlobalAxisofGravity Y
BoneLengthAxis Y
ScaleFactor 1.00
[SegmentNames&Hierarchy]
#CHILD	PARENT
BN_Tick_Root GLOBAL
BN_Torso BN_Tick_Root
BN_L_Leg_Front01 BN_Torso
BN_L_Leg_Rear01 BN_Torso
BN_MetalTop BN_Torso
BN_Neck BN_Torso
BN_R_Leg_Front01 BN_Torso
BN_R_Leg_Rear01 BN_Torso
BN_Sack BN_Torso
BN_L_Leg_Front02 BN_L_Leg_Front01
BN_L_Leg_Front03 BN_L_Leg_Front02
BN_L_Leg_Rear02 BN_L_Leg_Rear01
BN_L_Leg_Rear03 BN_L_Leg_Rear02
BN_Head BN_Neck
BN_Needle BN_Head
BN_R_Leg_Front02 BN_R_Leg_Front01
BN_R_Leg_Front03 BN_R_Leg_Front02
BN_R_Leg_Rear02 BN_R_Leg_Rear01
BN_R_Leg_Rear03 BN_R_Leg_Rear02
BN_SackDef01 BN_Sack
BN_SackDef02 BN_Sack
BN_SackDef03 BN_Sack
BN_SackDef04 BN_Sack
BN_SackDef05 BN_Sack
BN_SackDef06 BN_Sack
[BasePosition]
#SegmentName Tx, Ty, Tz, Rx, Ry, Rz, BoneLength
BN_Tick_Root 0.000000 0.000000 0.000000 -90.000000 0.000000 0.000000 10.000000 
BN_Torso 0.000000 0.000000 0.000000 0.000000 0.000000 0.000000 10.000000 
BN_L_Leg_Front01 0.000000 0.000000 0.000000 0.000000 0.000000 0.000000 10.000000 
BN_L_Leg_Rear01 0.000000 0.000000 0.000000 0.000000 0.000000 0.000000 10.000000 
BN_MetalTop 0.000000 0.000000 0.000000 0.000000 0.000000 0.000000 10.000000 
BN_Neck 0.000000 0.000000 0.000000 0.000000 0.000000 0.000000 10.000000 
BN_R_Leg_Front01 0.000000 0.000000 0.000000 0.000000 0.000000 0.000000 10.000000 
BN_R_Leg_Rear01 0.000000 0.000000 0.000000 0.000000 0.000000 0.000000 10.000000 
BN_Sack 0.000000 0.000000 0.000000 0.000000 0.000000 0.000000 10.000000 
BN_L_Leg_Front02 0.000000 0.000000 0.000000 0.000000 0.000000 0.000000 10.000000 
BN_L_Leg_Front03 0.000000 0.000000 0.000000 0.000000 0.000000 0.000000 10.000000 
BN_L_Leg_Rear02 0.000000 0.000000 0.000000 0.000000 0.000000 0.000000 10.000000 
BN_L_Leg_Rear03 0.000000 0.000000 0.000000 0.000000 0.000000 0.000000 10.000000 
BN_Head 0.000000 0.000000 0.000000 0.000000 0.000000 0.000000 10.000000 
BN_Needle 0.000000 0.000000 0.000000 0.000000 0.000000 0.000000 10.000000 
BN_R_Leg_Front02 0.000000 0.000000 0.000000 0.000000 0.000000 0.000000 10.000000 
BN_R_Leg_Front03 0.000000 0.000000 0.000000 0.000000 0.000000 0.000000 10.000000 
BN_R_Leg_Rear02 0.000000 0.000000 0.000000 0.000000 0.000000 0.000000 10.000000 
BN_R_Leg_Rear03 0.000000 0.000000 0.000000 0.000000 0.000000 0.000000 10.000000 
BN_SackDef01 0.000000 0.000000 0.000000 0.000000 0.000000 0.000000 10.000000 
BN_SackDef02 0.000000 0.000000 0.000000 0.000000 0.000000 0.000000 10.000000 
BN_SackDef03 0.000000 0.000000 0.000000 0.000000 0.000000 0.000000 10.000000 
BN_SackDef04 0.000000 0.000000 0.000000 0.000000 0.000000 0.000000 10.000000 
BN_SackDef05 0.000000 0.000000 0.000000 0.000000 0.000000 0.000000 10.000000 
BN_SackDef06 0.000000 0.000000 0.000000 0.000000 0.000000 0.000000 10.000000 
#Beginning of Data. Separated by tabs
#Fr	Tx	Ty	Tz	Rx	Ry	Rz	SF
[BN_Tick_Root]
8 0.000000 0.000000 0.000000 0.000000 0.000000 -0.000020 0.000000
9 0.000000 0.000000 0.000000 0.000000 0.000000 -0.000020 0.000000
10 0.000000 0.000000 0.000000 0.000000 0.000000 -0.000020 0.000000
11 0.000000 0.000000 0.000000 0.000000 0.000000 -0.000020 0.000000
[BN_Torso]
8 2.536142 33.692085 337.020050 33.406467 10.780286 -11.409402 338.709442
9 3.128541 17.832802 241.206451 25.708614 -0.766508 -11.004798 241.884995
10 3.359409 11.652153 169.996674 9.906829 -12.411567 -10.881969 170.428665
11 3.516309 7.451786 105.671204 -7.315515 -23.770052 -10.811149 105.991966
[BN_L_Leg_Front01]
8 -68.477791 10.734189 -26.804373 43.094421 59.398876 -112.908936 74.316254
9 -68.477791 10.734189 -26.804373 -2.277210 55.674381 -165.063705 74.316254
10 -68.477791 10.734189 -26.804373 -35.557583 32.522388 161.456955 74.316254
11 -68.477791 10.734189 -26.804373 -49.323631 -0.958514 148.046371 74.316254
[BN_L_Leg_Rear01]
8 -72.133743 -73.994843 -18.268616 89.564018 23.649269 -99.502319 104.939293
9 -72.133743 -73.994843 -18.268616 79.141708 17.600245 -116.576752 104.939293
10 -72.133743 -73.994843 -18.268616 62.852673 14.472301 -129.641068 104.939293
11 -72.133743 -73.994843 -18.268616 44.177799 11.099030 -134.430298 104.939293
[BN_MetalTop]
8 0.000008 13.737477 26.403606 90.001404 -12.929121 -89.998405 29.763546
9 0.000008 13.737477 26.403606 113.364708 -57.760876 -118.111748 29.763546
10 0.000008 13.737477 26.403606 109.957214 -49.814171 -113.915146 29.763546
11 0.000008 13.737477 26.403606 106.474609 -34.851677 -109.045845 29.763546
[BN_Neck]
8 0.000014 95.233284 10.002091 -90.003807 -65.297737 90.002632 95.757088
9 0.000014 95.233284 10.002091 -99.114670 -59.691181 89.997719 95.757088
10 0.000014 95.233284 10.002091 -119.174919 -47.353710 90.000343 95.757088
11 0.000014 95.233284 10.002091 -139.228760 -35.014793 89.999870 95.757088
[BN_R_Leg_Front01]
8 68.477768 10.734107 -26.804314 24.016649 37.193417 47.769020 74.316193
9 68.477768 10.734107 -26.804314 15.895259 65.750465 25.876753 74.316193
10 68.477768 10.734107 -26.804314 58.650192 64.905960 58.449570 74.316193
11 68.477768 10.734107 -26.804314 86.698654 48.040840 75.568512 74.316193
[BN_R_Leg_Rear01]
8 72.133751 -73.994873 -18.268644 -88.975998 20.695856 -41.796555 104.939331
9 72.133751 -73.994873 -18.268644 -90.383499 27.354298 -45.086018 104.939331
10 72.133751 -73.994873 -18.268644 -85.751976 42.918446 -43.144512 104.939331
11 72.133751 -73.994873 -18.268644 -77.241188 54.806656 -38.335178 104.939331
[BN_Sack]
8 -0.000000 -78.024918 33.657791 89.999649 -6.303732 -89.998108 84.974907
9 -0.000000 -78.024918 33.657791 89.999641 -6.303734 -89.998108 84.974907
10 -0.000000 -78.024918 33.657791 89.999641 -6.303734 -89.998108 84.974907
11 -0.000000 -78.024918 33.657791 89.999641 -6.303736 -89.998108 84.974907
[BN_L_Leg_Front02]
8 142.805023 -0.000015 -0.000104 0.183235 0.296967 -92.703934 142.805023
9 142.805023 -0.000015 -0.000104 0.183235 0.296967 -92.703934 142.805023
10 142.805023 -0.000015 -0.000104 0.183235 0.296967 -92.703934 142.805023
11 142.805023 -0.000015 -0.000104 0.183235 0.296967 -92.703934 142.805023
[BN_L_Leg_Front03]
8 124.143021 -0.000045 0.000007 0.353362 -0.441911 100.329872 124.143021
9 124.143021 -0.000045 0.000007 0.353362 -0.441911 100.329872 124.143021
10 124.143021 -0.000045 0.000007 0.353362 -0.441911 100.329872 124.143021
11 124.143021 -0.000045 0.000007 0.353362 -0.441911 100.329872 124.143021
[BN_L_Leg_Rear02]
8 139.939041 0.000075 -0.000022 0.143457 -0.186082 75.574715 139.939041
9 139.939041 0.000075 -0.000022 0.143457 -0.186082 75.574715 139.939041
10 139.939041 0.000075 -0.000022 0.143457 -0.186082 75.574715 139.939041
11 139.939041 0.000075 -0.000022 0.143457 -0.186082 75.574715 139.939041
[BN_L_Leg_Rear03]
8 142.839615 0.000179 -0.000060 0.000003 -0.000003 -88.940514 142.839615
9 142.839615 0.000179 -0.000060 0.000003 -0.000003 -88.940514 142.839615
10 142.839615 0.000179 -0.000060 0.000003 -0.000003 -88.940514 142.839615
11 142.839615 0.000179 -0.000060 0.000003 -0.000003 -88.940514 142.839615
[BN_Head]
8 57.062447 -0.000030 0.000000 0.049790 3.791850 -42.681973 57.062447
9 57.062447 -0.000030 0.000000 5.027176 9.980431 -41.149330 57.062447
10 57.062447 -0.000030 0.000000 15.926114 18.679964 -38.099693 57.062447
11 57.062447 -0.000030 0.000000 26.815563 26.438417 -35.111805 57.062447
[BN_Needle]
8 33.915161 69.677544 -0.000060 0.000003 0.000030 87.896805 77.493217
9 33.915161 69.677544 -0.000060 0.000003 0.000030 87.896805 77.493217
10 33.915161 69.677544 -0.000060 0.000003 0.000030 87.896805 77.493217
11 33.915161 69.677544 -0.000060 0.000003 0.000030 87.896805 77.493217
[BN_R_Leg_Front02]
8 142.804947 -0.000060 0.000060 -0.193036 0.296610 92.706657 142.804947
9 142.804947 -0.000060 0.000060 -0.193036 0.296610 92.706657 142.804947
10 142.804947 -0.000060 0.000060 -0.193036 0.296610 92.706657 142.804947
11 142.804947 -0.000060 0.000060 -0.193036 0.296610 92.706657 142.804947
[BN_R_Leg_Front03]
8 124.143005 -0.000060 -0.000156 -0.353343 -0.441338 -100.329697 124.143005
9 124.143005 -0.000060 -0.000156 -0.353343 -0.441338 -100.329697 124.143005
10 124.143005 -0.000060 -0.000156 -0.353343 -0.441338 -100.329697 124.143005
11 124.143005 -0.000060 -0.000156 -0.353343 -0.441338 -100.329697 124.143005
[BN_R_Leg_Rear02]
8 139.939011 -0.000149 0.000015 -0.130192 -0.173712 -75.585640 139.939011
9 139.939011 -0.000149 0.000015 -0.130192 -0.173712 -75.585640 139.939011
10 139.939011 -0.000149 0.000015 -0.130192 -0.173712 -75.585640 139.939011
11 139.939011 -0.000149 0.000015 -0.130192 -0.173712 -75.585640 139.939011
[BN_R_Leg_Rear03]
8 142.839417 0.000075 0.000119 0.000002 0.000017 88.940636 142.839417
9 142.839417 0.000075 0.000119 0.000002 0.000017 88.940636 142.839417
10 142.839417 0.000075 0.000119 0.000002 0.000017 88.940636 142.839417
11 142.839417 0.000075 0.000119 0.000002 0.000017 88.940636 142.839417
[BN_SackDef01]
8 249.782272 -3.760844 42.949425 -128.408218 -44.374973 -11.740845 253.475800
9 249.782272 -3.760844 42.949425 -128.408218 -44.374973 -11.740845 253.475800
10 249.782272 -3.760844 42.949425 -128.408218 -44.374973 -11.740845 253.475800
11 249.782272 -3.760844 42.949425 -128.408218 -44.374973 -11.740845 253.475800
[BN_SackDef02]
8 138.789795 -62.131748 45.674385 32.077126 -27.375721 -88.781525 158.773758
9 138.789795 -62.131748 45.674385 32.077126 -27.375721 -88.781525 158.773758
10 138.789795 -62.131748 45.674385 32.077126 -27.375721 -88.781525 158.773758
11 138.789795 -62.131748 45.674385 32.077126 -27.375721 -88.781525 158.773758
[BN_SackDef03]
8 249.782272 -3.760785 -42.949661 18.144459 44.375008 -11.740894 253.475845
9 249.782272 -3.760785 -42.949661 18.144459 44.375008 -11.740894 253.475845
10 249.782272 -3.760785 -42.949661 18.144459 44.375008 -11.740894 253.475845
11 249.782272 -3.760785 -42.949661 18.144459 44.375008 -11.740894 253.475845
[BN_SackDef04]
8 138.789780 -62.131645 -45.674473 146.059982 27.375723 -88.781555 158.773743
9 138.789780 -62.131645 -45.674473 146.059982 27.375723 -88.781555 158.773743
10 138.789780 -62.131645 -45.674473 146.059982 27.375723 -88.781555 158.773743
11 138.789780 -62.131645 -45.674473 146.059982 27.375723 -88.781555 158.773743
[BN_SackDef05]
8 118.790161 46.167137 -63.831196 0.155741 51.314110 90.605110 142.537460
9 118.790161 46.167137 -63.831196 0.155741 51.314110 90.605110 142.537460
10 118.790161 46.167137 -63.831196 0.155741 51.314110 90.605110 142.537460
11 118.790161 46.167137 -63.831196 0.155741 51.314110 90.605110 142.537460
[BN_SackDef06]
8 118.790207 46.167194 63.831219 152.058487 -51.314072 90.605019 142.537537
9 118.790207 46.167194 63.831219 152.058487 -51.314072 90.605019 142.537537
10 118.790207 46.167194 63.831219 152.058487 -51.314072 90.605019 142.537537
11 118.790207 46.167194 63.831219 152.058487 -51.314072 90.605019 142.537537
